<svg xmlns="http://www.w3.org/2000/svg" viewBox="0 0 256 256">
  <defs>
    <linearGradient id="a" x1="98.03%" y1="0.22%" x2="58.89%" y2="40.76%">
      <stop offset="18%" stop-color="#0052CC"/>
      <stop offset="100%" stop-color="#2684FF"/>
    </linearGradient>
    <linearGradient id="b" x1="100.97%" y1="0.49%" x2="55.9%" y2="44.14%">
      <stop offset="18%" stop-color="#0052CC"/>
      <stop offset="100%" stop-color="#2684FF"/>
    </linearGradient>
  </defs>
  <path d="M244.658 0H121.707a55.502 55.502 0 0 0 55.502 55.502h22.649V77.37c.02 30.625 24.841 55.447 55.466 55.502V10.666C255.324 4.777 250.55 0 244.658 0z" fill="#2684FF"/>
  <path d="M183.822 61.262H60.872c.019 30.625 24.84 55.447 55.466 55.502h22.649v21.868c.02 30.597 24.798 55.408 55.395 55.502V71.93c0-5.891-4.776-10.667-10.56-10.667z" fill="url(#a)"/>
  <path d="M122.951 122.489H0c0 30.653 24.85 55.502 55.502 55.502h22.72v21.868c.02 30.597 24.798 55.408 55.396 55.502V133.156c0-5.891-4.776-10.667-10.667-10.667z" fill="url(#b)"/>
</svg>
